<svg xmlns="http://www.w3.org/2000/svg" xmlns:xlink="http://www.w3.org/1999/xlink" width="851" zoomAndPan="magnify" viewBox="0 0 638.25 236.249991" height="315" preserveAspectRatio="xMidYMid meet" version="1.0"><defs><g/><clipPath id="8e1017c1f5"><path d="M 0.636719 0 L 636.867188 0 L 636.867188 235.503906 L 0.636719 235.503906 Z M 0.636719 0 " clip-rule="nonzero"/></clipPath><clipPath id="93e6d17e9b"><path d="M 303.851562 50.417969 L 333.753906 50.417969 L 333.753906 109.480469 L 303.851562 109.480469 Z M 303.851562 50.417969 " clip-rule="nonzero"/></clipPath><clipPath id="85f2d9ab2e"><path d="M 310.882812 66 L 326.582031 66 L 326.582031 94.574219 L 310.882812 94.574219 Z M 310.882812 66 " clip-rule="nonzero"/></clipPath></defs><g clip-path="url(#8e1017c1f5)"><path fill="#ffffff" d="M 0.636719 0 L 636.867188 0 L 636.867188 235.503906 L 0.636719 235.503906 Z M 0.636719 0 " fill-opacity="1" fill-rule="nonzero"/><path fill="#000000" d="M 0.636719 0 L 636.867188 0 L 636.867188 235.503906 L 0.636719 235.503906 Z M 0.636719 0 " fill-opacity="1" fill-rule="nonzero"/></g><g clip-path="url(#93e6d17e9b)"><path fill="#ff5c00" d="M 329.878906 50.417969 C 329.878906 55.34375 329.878906 60.273438 329.878906 65.261719 C 331.121094 65.261719 332.324219 65.261719 333.589844 65.261719 C 333.589844 66.730469 333.589844 68.132812 333.589844 69.539062 C 333.589844 74.414062 333.703125 79.289062 333.554688 84.15625 C 333.40625 88.839844 330.988281 92.136719 326.71875 94.050781 C 326.308594 94.234375 326.109375 94.40625 326.148438 94.882812 C 326.199219 95.476562 326.164062 96.078125 326.160156 96.679688 C 326.15625 97.914062 325.40625 98.671875 324.1875 98.679688 C 323.628906 98.683594 323.074219 98.679688 322.472656 98.679688 C 322.472656 102.394531 322.472656 106.058594 322.472656 109.769531 C 319.984375 109.769531 317.542969 109.769531 315.058594 109.769531 C 315.058594 106.109375 315.058594 102.441406 315.058594 98.679688 C 314.449219 98.679688 313.875 98.683594 313.304688 98.679688 C 312.054688 98.671875 311.304688 97.894531 311.316406 96.636719 C 311.320312 95.996094 311.296875 95.359375 311.320312 94.71875 C 311.332031 94.398438 311.222656 94.253906 310.925781 94.125 C 306.902344 92.402344 304.53125 89.378906 303.96875 85.03125 C 303.804688 83.792969 303.890625 82.519531 303.890625 81.265625 C 303.886719 76.101562 303.890625 70.9375 303.894531 65.777344 C 303.894531 65.625 303.894531 65.476562 303.894531 65.285156 C 305.144531 65.285156 306.335938 65.285156 307.601562 65.285156 C 307.601562 60.296875 307.601562 55.359375 307.601562 50.417969 C 315.027344 50.417969 322.453125 50.417969 329.878906 50.417969 Z M 315.015625 54.164062 C 313.75 54.164062 312.546875 54.164062 311.347656 54.164062 C 311.347656 56.644531 311.347656 59.082031 311.347656 61.519531 C 312.59375 61.519531 313.796875 61.519531 315.015625 61.519531 C 315.015625 59.054688 315.015625 56.628906 315.015625 54.164062 Z M 322.484375 54.140625 C 322.484375 56.632812 322.484375 59.074219 322.484375 61.519531 C 323.726562 61.519531 324.929688 61.519531 326.121094 61.519531 C 326.121094 59.035156 326.121094 56.59375 326.121094 54.140625 C 324.890625 54.140625 323.714844 54.140625 322.484375 54.140625 Z M 322.484375 54.140625 " fill-opacity="1" fill-rule="nonzero"/></g><g clip-path="url(#85f2d9ab2e)"><path fill="#000000" d="M 325.777344 75.582031 L 322.730469 75.582031 C 322.171875 75.582031 321.714844 76.039062 321.714844 76.601562 L 321.714844 78.640625 C 321.714844 79.203125 322.171875 79.660156 322.730469 79.660156 L 323.746094 79.660156 L 323.746094 82.773438 L 319.6875 83.746094 L 319.6875 74.5625 L 322.265625 74.5625 C 322.484375 74.5625 322.6875 74.320312 322.804688 74.132812 C 322.917969 73.945312 322.929688 73.648438 322.832031 73.449219 L 319.621094 66.886719 C 319.40625 66.453125 318.695312 66.4375 318.480469 66.871094 L 315.269531 73.394531 C 315.171875 73.59375 315.183594 73.949219 315.296875 74.136719 C 315.410156 74.324219 315.617188 74.5625 315.835938 74.5625 L 318.667969 74.5625 L 318.667969 86.296875 L 314.605469 85.320312 L 314.605469 82.527344 C 316.054688 82.230469 317.144531 80.941406 317.144531 79.402344 C 317.144531 77.644531 315.722656 76.21875 313.972656 76.21875 C 312.222656 76.21875 310.925781 77.648438 310.925781 79.402344 C 310.925781 80.941406 311.5625 82.230469 313.589844 82.527344 L 313.589844 85.816406 C 313.589844 86.109375 313.660156 86.363281 313.941406 86.433594 L 318.53125 87.589844 C 318.554688 87.597656 318.671875 87.597656 318.671875 87.601562 L 318.671875 88.972656 C 316.640625 89.300781 316.085938 90.5625 316.085938 92.070312 C 316.085938 93.828125 317.445312 95.257812 319.195312 95.257812 C 320.945312 95.257812 322.335938 93.828125 322.335938 92.070312 C 322.335938 90.507812 321.171875 89.203125 319.6875 88.941406 L 319.6875 85.054688 C 319.710938 85.050781 319.738281 85.050781 319.765625 85.042969 L 324.285156 83.886719 C 324.566406 83.816406 324.765625 83.5625 324.765625 83.273438 L 324.765625 79.660156 L 325.78125 79.660156 C 326.34375 79.660156 326.796875 79.207031 326.796875 78.640625 L 326.796875 76.601562 C 326.792969 76.039062 326.339844 75.582031 325.777344 75.582031 Z M 325.777344 75.582031 " fill-opacity="1" fill-rule="nonzero"/></g><g fill="#ff4500" fill-opacity="1"><g transform="translate(214.726607, 150.302265)"><g><path d="M 18.453125 -6.203125 C 18.453125 -5.304688 18.300781 -4.507812 18 -3.8125 C 17.6875 -3.070312 17.238281 -2.414062 16.65625 -1.84375 C 16.113281 -1.289062 15.441406 -0.84375 14.640625 -0.5 C 13.816406 -0.164062 13.007812 0 12.21875 0 L 3.71875 0 C 3.195312 0 2.753906 -0.179688 2.390625 -0.546875 C 2.023438 -0.921875 1.84375 -1.363281 1.84375 -1.875 L 1.84375 -29.328125 C 1.84375 -29.847656 2.023438 -30.289062 2.390625 -30.65625 C 2.753906 -31.03125 3.195312 -31.21875 3.71875 -31.21875 L 12.21875 -31.21875 C 13.101562 -31.21875 13.910156 -31.0625 14.640625 -30.75 C 15.035156 -30.601562 15.394531 -30.414062 15.71875 -30.1875 C 16.039062 -29.957031 16.351562 -29.703125 16.65625 -29.421875 C 16.9375 -29.117188 17.191406 -28.804688 17.421875 -28.484375 C 17.648438 -28.160156 17.84375 -27.800781 18 -27.40625 C 18.300781 -26.664062 18.453125 -25.851562 18.453125 -24.96875 Z M 8.078125 -6.203125 L 12.21875 -6.203125 L 12.21875 -24.96875 L 8.078125 -24.96875 Z M 8.078125 -6.203125 "/></g></g></g><g fill="#ff4500" fill-opacity="1"><g transform="translate(235.015774, 150.302265)"><g><path d="M 18.453125 -25.015625 L 18.453125 0 L 12.21875 0 L 12.21875 -12.484375 L 8.078125 -12.484375 L 8.078125 0 L 1.84375 0 L 1.84375 -25.015625 C 1.84375 -25.847656 2.007812 -26.644531 2.34375 -27.40625 C 2.675781 -28.195312 3.117188 -28.851562 3.671875 -29.375 C 4.191406 -29.925781 4.847656 -30.375 5.640625 -30.71875 C 6.472656 -31.050781 7.285156 -31.21875 8.078125 -31.21875 L 12.21875 -31.21875 C 13.007812 -31.21875 13.816406 -31.050781 14.640625 -30.71875 C 15.441406 -30.40625 16.113281 -29.957031 16.65625 -29.375 C 17.238281 -28.800781 17.6875 -28.144531 18 -27.40625 C 18.300781 -26.695312 18.453125 -25.898438 18.453125 -25.015625 Z M 8.078125 -18.734375 L 12.21875 -18.734375 L 12.21875 -25.015625 L 8.078125 -25.015625 Z M 8.078125 -18.734375 "/></g></g></g><g fill="#ff4500" fill-opacity="1"><g transform="translate(255.304941, 150.302265)"><g><path d="M 18.453125 -25.015625 L 18.453125 0 L 12.21875 0 L 12.21875 -25.015625 L 8.078125 -25.015625 L 8.078125 0 L 1.84375 0 L 1.84375 -25.015625 C 1.84375 -25.847656 2.007812 -26.644531 2.34375 -27.40625 C 2.675781 -28.195312 3.117188 -28.851562 3.671875 -29.375 C 4.191406 -29.925781 4.847656 -30.375 5.640625 -30.71875 C 6.472656 -31.050781 7.285156 -31.21875 8.078125 -31.21875 L 12.21875 -31.21875 C 13.007812 -31.21875 13.816406 -31.050781 14.640625 -30.71875 C 15.441406 -30.40625 16.113281 -29.957031 16.65625 -29.375 C 17.238281 -28.800781 17.6875 -28.144531 18 -27.40625 C 18.300781 -26.695312 18.453125 -25.898438 18.453125 -25.015625 Z M 18.453125 -25.015625 "/></g></g></g><g fill="#ff4500" fill-opacity="1"><g transform="translate(275.594109, 150.302265)"><g/></g></g><g fill="#ff4500" fill-opacity="1"><g transform="translate(286.610857, 150.302265)"><g><path d="M 11.984375 -31.21875 L 18.21875 -31.21875 L 18.21875 -24.96875 C 18.21875 -24.445312 18.207031 -23.816406 18.1875 -23.078125 C 18.175781 -22.347656 18.160156 -21.523438 18.140625 -20.609375 C 18.109375 -19.722656 18.035156 -18.773438 17.921875 -17.765625 C 17.816406 -16.753906 17.6875 -15.679688 17.53125 -14.546875 C 17.226562 -12.378906 16.722656 -10.007812 16.015625 -7.4375 C 15.441406 -5.257812 14.585938 -3.070312 13.453125 -0.875 C 13.171875 -0.351562 12.726562 -0.0625 12.125 0 L 7.71875 0 C 7.101562 -0.0625 6.65625 -0.351562 6.375 -0.875 C 5.25 -3.070312 4.394531 -5.257812 3.8125 -7.4375 C 3.101562 -10.007812 2.597656 -12.378906 2.296875 -14.546875 C 2.140625 -15.679688 2.007812 -16.753906 1.90625 -17.765625 C 1.800781 -18.773438 1.734375 -19.722656 1.703125 -20.609375 C 1.671875 -21.523438 1.644531 -22.347656 1.625 -23.078125 C 1.613281 -23.816406 1.609375 -24.445312 1.609375 -24.96875 L 1.609375 -31.21875 L 7.84375 -31.21875 L 7.84375 -21.984375 C 7.84375 -21.398438 7.863281 -20.769531 7.90625 -20.09375 C 7.957031 -19.425781 8.015625 -18.710938 8.078125 -17.953125 C 8.140625 -17.179688 8.226562 -16.398438 8.34375 -15.609375 C 8.46875 -14.816406 8.59375 -13.988281 8.71875 -13.125 C 8.875 -12.269531 9.050781 -11.398438 9.25 -10.515625 C 9.445312 -9.628906 9.671875 -8.738281 9.921875 -7.84375 C 10.160156 -8.738281 10.382812 -9.628906 10.59375 -10.515625 C 10.8125 -11.398438 10.984375 -12.269531 11.109375 -13.125 C 11.265625 -13.988281 11.394531 -14.816406 11.5 -15.609375 C 11.601562 -16.398438 11.6875 -17.179688 11.75 -17.953125 C 11.8125 -18.710938 11.863281 -19.425781 11.90625 -20.09375 C 11.957031 -20.769531 11.984375 -21.398438 11.984375 -21.984375 Z M 11.984375 -31.21875 "/></g></g></g><g fill="#ff4500" fill-opacity="1"><g transform="translate(306.441, 150.302265)"><g><path d="M 18.453125 -25.015625 L 18.453125 0 L 12.21875 0 L 12.21875 -12.484375 L 8.078125 -12.484375 L 8.078125 0 L 1.84375 0 L 1.84375 -25.015625 C 1.84375 -25.847656 2.007812 -26.644531 2.34375 -27.40625 C 2.675781 -28.195312 3.117188 -28.851562 3.671875 -29.375 C 4.191406 -29.925781 4.847656 -30.375 5.640625 -30.71875 C 6.472656 -31.050781 7.285156 -31.21875 8.078125 -31.21875 L 12.21875 -31.21875 C 13.007812 -31.21875 13.816406 -31.050781 14.640625 -30.71875 C 15.441406 -30.40625 16.113281 -29.957031 16.65625 -29.375 C 17.238281 -28.800781 17.6875 -28.144531 18 -27.40625 C 18.300781 -26.695312 18.453125 -25.898438 18.453125 -25.015625 Z M 8.078125 -18.734375 L 12.21875 -18.734375 L 12.21875 -25.015625 L 8.078125 -25.015625 Z M 8.078125 -18.734375 "/></g></g></g><g fill="#ff4500" fill-opacity="1"><g transform="translate(326.730168, 150.302265)"><g><path d="M 17.578125 -6.25 C 17.578125 -5.351562 17.425781 -4.539062 17.125 -3.8125 C 16.8125 -3.070312 16.367188 -2.414062 15.796875 -1.84375 C 15.242188 -1.289062 14.566406 -0.84375 13.765625 -0.5 C 12.941406 -0.164062 12.132812 0 11.34375 0 L 7.15625 0 C 6.363281 0 5.554688 -0.164062 4.734375 -0.5 C 3.929688 -0.84375 3.269531 -1.289062 2.75 -1.84375 C 2.195312 -2.351562 1.753906 -3.007812 1.421875 -3.8125 C 1.085938 -4.632812 0.921875 -5.445312 0.921875 -6.25 L 0.921875 -10.46875 L 7.15625 -10.46875 L 7.15625 -6.25 L 11.34375 -6.25 L 11.34375 -8.625 L 2.53125 -18.40625 C 1.976562 -19.050781 1.578125 -19.707031 1.328125 -20.375 C 1.054688 -21.082031 0.921875 -21.816406 0.921875 -22.578125 L 0.921875 -24.96875 C 0.921875 -25.769531 1.085938 -26.582031 1.421875 -27.40625 C 1.753906 -28.195312 2.195312 -28.867188 2.75 -29.421875 C 3.332031 -30.003906 3.992188 -30.445312 4.734375 -30.75 C 5.460938 -31.0625 6.269531 -31.21875 7.15625 -31.21875 L 11.34375 -31.21875 C 12.226562 -31.21875 13.035156 -31.0625 13.765625 -30.75 C 14.171875 -30.601562 14.53125 -30.414062 14.84375 -30.1875 C 15.164062 -29.957031 15.484375 -29.703125 15.796875 -29.421875 C 16.066406 -29.117188 16.316406 -28.804688 16.546875 -28.484375 C 16.773438 -28.160156 16.96875 -27.800781 17.125 -27.40625 C 17.425781 -26.664062 17.578125 -25.851562 17.578125 -24.96875 L 17.578125 -20.84375 L 11.34375 -20.84375 L 11.34375 -24.96875 L 7.15625 -24.96875 L 7.15625 -22.578125 L 15.96875 -12.765625 C 16.488281 -12.117188 16.890625 -11.472656 17.171875 -10.828125 C 17.441406 -10.160156 17.578125 -9.425781 17.578125 -8.625 Z M 17.578125 -6.25 "/></g></g></g><g fill="#ff4500" fill-opacity="1"><g transform="translate(345.229118, 150.302265)"><g><path d="M 18.546875 -6.203125 C 18.546875 -5.304688 18.394531 -4.507812 18.09375 -3.8125 C 17.78125 -3.070312 17.332031 -2.414062 16.75 -1.84375 C 16.195312 -1.289062 15.523438 -0.84375 14.734375 -0.5 C 14.273438 -0.320312 13.800781 -0.1875 13.3125 -0.09375 L 13.3125 4.125 L 7.0625 4.125 L 7.0625 -0.09375 C 6.570312 -0.1875 6.097656 -0.320312 5.640625 -0.5 C 4.847656 -0.84375 4.191406 -1.289062 3.671875 -1.84375 C 3.117188 -2.351562 2.675781 -3.007812 2.34375 -3.8125 C 2.007812 -4.570312 1.84375 -5.367188 1.84375 -6.203125 L 1.84375 -24.96875 C 1.84375 -25.769531 2.007812 -26.582031 2.34375 -27.40625 C 2.675781 -28.195312 3.117188 -28.867188 3.671875 -29.421875 C 4.253906 -30.003906 4.910156 -30.445312 5.640625 -30.75 C 6.347656 -31.0625 7.144531 -31.21875 8.03125 -31.21875 L 12.296875 -31.21875 C 13.191406 -31.21875 14.003906 -31.0625 14.734375 -30.75 C 15.128906 -30.601562 15.488281 -30.414062 15.8125 -30.1875 C 16.132812 -29.957031 16.445312 -29.703125 16.75 -29.421875 C 17.03125 -29.117188 17.285156 -28.804688 17.515625 -28.484375 C 17.742188 -28.160156 17.9375 -27.800781 18.09375 -27.40625 C 18.394531 -26.664062 18.546875 -25.851562 18.546875 -24.96875 Z M 8.078125 -6.203125 L 12.296875 -6.203125 L 12.296875 -24.96875 L 8.078125 -24.96875 Z M 8.078125 -6.203125 "/></g></g></g><g fill="#ff4500" fill-opacity="1"><g transform="translate(365.610096, 150.302265)"><g><path d="M 18.453125 -6.203125 C 18.453125 -5.304688 18.300781 -4.507812 18 -3.8125 C 17.6875 -3.070312 17.238281 -2.414062 16.65625 -1.84375 C 16.113281 -1.289062 15.441406 -0.84375 14.640625 -0.5 C 13.816406 -0.164062 13.007812 0 12.21875 0 L 8.078125 0 C 7.285156 0 6.472656 -0.164062 5.640625 -0.5 C 4.847656 -0.84375 4.191406 -1.289062 3.671875 -1.84375 C 3.117188 -2.351562 2.675781 -3.007812 2.34375 -3.8125 C 2.007812 -4.570312 1.84375 -5.367188 1.84375 -6.203125 L 1.84375 -31.21875 L 8.078125 -31.21875 L 8.078125 -6.203125 L 12.21875 -6.203125 L 12.21875 -31.21875 L 18.453125 -31.21875 Z M 18.453125 -6.203125 "/></g></g></g><g fill="#ff4500" fill-opacity="1"><g transform="translate(385.899263, 150.302265)"><g><path d="M 16.53125 -6.25 L 16.53125 0 L 3.71875 0 C 3.195312 0 2.753906 -0.179688 2.390625 -0.546875 C 2.023438 -0.921875 1.84375 -1.363281 1.84375 -1.875 L 1.84375 -29.328125 C 1.84375 -29.847656 2.023438 -30.289062 2.390625 -30.65625 C 2.753906 -31.03125 3.195312 -31.21875 3.71875 -31.21875 L 16.53125 -31.21875 L 16.53125 -24.96875 L 8.078125 -24.96875 L 8.078125 -18.734375 L 16.53125 -18.734375 L 16.53125 -12.484375 L 8.078125 -12.484375 L 8.078125 -6.25 Z M 16.53125 -6.25 "/></g></g></g><g fill="#ff4500" fill-opacity="1"><g transform="translate(404.260498, 150.302265)"><g><path d="M 17.578125 -6.25 C 17.578125 -5.351562 17.425781 -4.539062 17.125 -3.8125 C 16.8125 -3.070312 16.367188 -2.414062 15.796875 -1.84375 C 15.242188 -1.289062 14.566406 -0.84375 13.765625 -0.5 C 12.941406 -0.164062 12.132812 0 11.34375 0 L 7.15625 0 C 6.363281 0 5.554688 -0.164062 4.734375 -0.5 C 3.929688 -0.84375 3.269531 -1.289062 2.75 -1.84375 C 2.195312 -2.351562 1.753906 -3.007812 1.421875 -3.8125 C 1.085938 -4.632812 0.921875 -5.445312 0.921875 -6.25 L 0.921875 -10.46875 L 7.15625 -10.46875 L 7.15625 -6.25 L 11.34375 -6.25 L 11.34375 -8.625 L 2.53125 -18.40625 C 1.976562 -19.050781 1.578125 -19.707031 1.328125 -20.375 C 1.054688 -21.082031 0.921875 -21.816406 0.921875 -22.578125 L 0.921875 -24.96875 C 0.921875 -25.769531 1.085938 -26.582031 1.421875 -27.40625 C 1.753906 -28.195312 2.195312 -28.867188 2.75 -29.421875 C 3.332031 -30.003906 3.992188 -30.445312 4.734375 -30.75 C 5.460938 -31.0625 6.269531 -31.21875 7.15625 -31.21875 L 11.34375 -31.21875 C 12.226562 -31.21875 13.035156 -31.0625 13.765625 -30.75 C 14.171875 -30.601562 14.53125 -30.414062 14.84375 -30.1875 C 15.164062 -29.957031 15.484375 -29.703125 15.796875 -29.421875 C 16.066406 -29.117188 16.316406 -28.804688 16.546875 -28.484375 C 16.773438 -28.160156 16.96875 -27.800781 17.125 -27.40625 C 17.425781 -26.664062 17.578125 -25.851562 17.578125 -24.96875 L 17.578125 -20.84375 L 11.34375 -20.84375 L 11.34375 -24.96875 L 7.15625 -24.96875 L 7.15625 -22.578125 L 15.96875 -12.765625 C 16.488281 -12.117188 16.890625 -11.472656 17.171875 -10.828125 C 17.441406 -10.160156 17.578125 -9.425781 17.578125 -8.625 Z M 17.578125 -6.25 "/></g></g></g><g fill="#ffffff" fill-opacity="1"><g transform="translate(226.265292, 178.476617)"><g><path d="M 4.359375 0.234375 C 3.484375 0.234375 2.765625 -0.046875 2.203125 -0.609375 C 1.648438 -1.171875 1.375 -1.882812 1.375 -2.75 L 1.375 -8.375 C 1.375 -9.25 1.648438 -9.960938 2.203125 -10.515625 C 2.765625 -11.078125 3.484375 -11.359375 4.359375 -11.359375 L 8.953125 -11.359375 L 8.953125 -15.5 L 10.4375 -15.5 L 10.4375 0 L 9.40625 0 L 9.0625 -1.140625 L 8.953125 -1.140625 C 8.796875 -0.878906 8.597656 -0.648438 8.359375 -0.453125 C 8.140625 -0.285156 7.863281 -0.128906 7.53125 0.015625 C 7.207031 0.160156 6.800781 0.234375 6.3125 0.234375 Z M 6.546875 -1.265625 C 7.296875 -1.265625 7.882812 -1.476562 8.3125 -1.90625 C 8.738281 -2.332031 8.953125 -2.921875 8.953125 -3.671875 L 8.953125 -9.875 L 4.46875 -9.875 C 3.40625 -9.875 2.875 -9.335938 2.875 -8.265625 L 2.875 -2.875 C 2.875 -1.800781 3.40625 -1.265625 4.46875 -1.265625 Z M 6.546875 -1.265625 "/></g></g></g><g fill="#ffffff" fill-opacity="1"><g transform="translate(238.541876, 178.476617)"><g><path d="M 4.359375 0 C 3.484375 0 2.765625 -0.273438 2.203125 -0.828125 C 1.648438 -1.390625 1.375 -2.109375 1.375 -2.984375 L 1.375 -8.609375 C 1.375 -9.484375 1.648438 -10.195312 2.203125 -10.75 C 2.765625 -11.3125 3.484375 -11.59375 4.359375 -11.59375 L 7.453125 -11.59375 C 8.328125 -11.59375 9.039062 -11.3125 9.59375 -10.75 C 10.15625 -10.195312 10.4375 -9.484375 10.4375 -8.609375 L 10.4375 -4.703125 L 2.875 -4.703125 L 2.875 -3.09375 C 2.875 -2.019531 3.40625 -1.484375 4.46875 -1.484375 L 9.984375 -1.484375 L 9.984375 0 Z M 8.953125 -6.203125 L 8.953125 -8.5 C 8.953125 -9.5625 8.414062 -10.09375 7.34375 -10.09375 L 4.46875 -10.09375 C 3.40625 -10.09375 2.875 -9.5625 2.875 -8.5 L 2.875 -6.203125 Z M 8.953125 -6.203125 "/></g></g></g><g fill="#ffffff" fill-opacity="1"><g transform="translate(250.359518, 178.476617)"><g><path d="M 0.921875 -1.484375 L 6.078125 -1.484375 C 7.148438 -1.484375 7.6875 -2.019531 7.6875 -3.09375 C 7.6875 -3.550781 7.5625 -3.898438 7.3125 -4.140625 C 7.070312 -4.390625 6.660156 -4.578125 6.078125 -4.703125 L 3.4375 -5.28125 C 2.625 -5.445312 2 -5.773438 1.5625 -6.265625 C 1.132812 -6.753906 0.921875 -7.34375 0.921875 -8.03125 L 0.921875 -8.375 C 0.921875 -9.289062 1.1875 -10.015625 1.71875 -10.546875 C 2.257812 -11.085938 2.988281 -11.359375 3.90625 -11.359375 L 8.84375 -11.359375 L 8.84375 -10.328125 L 8.375 -9.875 L 4.015625 -9.875 C 2.941406 -9.875 2.40625 -9.335938 2.40625 -8.265625 C 2.40625 -7.804688 2.507812 -7.453125 2.71875 -7.203125 C 2.925781 -6.960938 3.320312 -6.78125 3.90625 -6.65625 L 6.546875 -6.078125 C 7.359375 -5.910156 8 -5.582031 8.46875 -5.09375 C 8.945312 -4.601562 9.1875 -4.015625 9.1875 -3.328125 L 9.1875 -2.984375 C 9.1875 -2.066406 8.914062 -1.335938 8.375 -0.796875 C 7.84375 -0.265625 7.117188 0 6.203125 0 L 0.921875 0 Z M 0.921875 -1.484375 "/></g></g></g><g fill="#ffffff" fill-opacity="1"><g transform="translate(260.456144, 178.476617)"><g><path d="M 4.359375 0 C 3.484375 0 2.765625 -0.273438 2.203125 -0.828125 C 1.648438 -1.390625 1.375 -2.109375 1.375 -2.984375 L 1.375 -8.609375 C 1.375 -9.484375 1.648438 -10.195312 2.203125 -10.75 C 2.765625 -11.3125 3.484375 -11.59375 4.359375 -11.59375 L 7.453125 -11.59375 C 8.328125 -11.59375 9.039062 -11.3125 9.59375 -10.75 C 10.15625 -10.195312 10.4375 -9.484375 10.4375 -8.609375 L 10.4375 -4.703125 L 2.875 -4.703125 L 2.875 -3.09375 C 2.875 -2.019531 3.40625 -1.484375 4.46875 -1.484375 L 9.984375 -1.484375 L 9.984375 0 Z M 8.953125 -6.203125 L 8.953125 -8.5 C 8.953125 -9.5625 8.414062 -10.09375 7.34375 -10.09375 L 4.46875 -10.09375 C 3.40625 -10.09375 2.875 -9.5625 2.875 -8.5 L 2.875 -6.203125 Z M 8.953125 -6.203125 "/></g></g></g><g fill="#ffffff" fill-opacity="1"><g transform="translate(272.273786, 178.476617)"><g><path d="M 1.71875 -11.359375 L 2.75 -11.359375 L 3.09375 -10.21875 L 3.21875 -10.21875 C 3.363281 -10.476562 3.5625 -10.707031 3.8125 -10.90625 C 4.019531 -11.070312 4.289062 -11.226562 4.625 -11.375 C 4.957031 -11.519531 5.367188 -11.59375 5.859375 -11.59375 L 7.578125 -11.59375 C 8.453125 -11.59375 9.164062 -11.3125 9.71875 -10.75 C 10.28125 -10.195312 10.5625 -9.484375 10.5625 -8.609375 L 10.5625 0 L 9.0625 0 L 9.0625 -8.5 C 9.0625 -9.5625 8.523438 -10.09375 7.453125 -10.09375 L 5.625 -10.09375 C 4.875 -10.09375 4.285156 -9.878906 3.859375 -9.453125 C 3.429688 -9.023438 3.21875 -8.4375 3.21875 -7.6875 L 3.21875 0 L 1.71875 0 Z M 1.71875 -11.359375 "/></g></g></g><g fill="#ffffff" fill-opacity="1"><g transform="translate(284.55037, 178.476617)"><g><path d="M 0.453125 -10.5625 L 0.453125 -11.359375 L 1.84375 -11.359375 L 5.34375 -1.953125 L 5.4375 -1.953125 L 8.84375 -11.359375 L 10.21875 -11.359375 L 10.21875 -10.5625 L 6.203125 0 L 4.46875 0 Z M 0.453125 -10.5625 "/></g></g></g><g fill="#ffffff" fill-opacity="1"><g transform="translate(295.220665, 178.476617)"><g><path d="M 4.359375 0.234375 C 3.484375 0.234375 2.765625 -0.046875 2.203125 -0.609375 C 1.648438 -1.171875 1.375 -1.882812 1.375 -2.75 L 1.375 -8.609375 C 1.375 -9.484375 1.648438 -10.195312 2.203125 -10.75 C 2.765625 -11.3125 3.484375 -11.59375 4.359375 -11.59375 L 7.6875 -11.59375 C 8.5625 -11.59375 9.273438 -11.3125 9.828125 -10.75 C 10.390625 -10.195312 10.671875 -9.484375 10.671875 -8.609375 L 10.671875 -2.75 C 10.671875 -1.882812 10.390625 -1.171875 9.828125 -0.609375 C 9.273438 -0.046875 8.5625 0.234375 7.6875 0.234375 Z M 7.578125 -1.265625 C 8.648438 -1.265625 9.1875 -1.800781 9.1875 -2.875 L 9.1875 -8.5 C 9.1875 -9.5625 8.648438 -10.09375 7.578125 -10.09375 L 4.46875 -10.09375 C 3.40625 -10.09375 2.875 -9.5625 2.875 -8.5 L 2.875 -2.875 C 2.875 -1.800781 3.40625 -1.265625 4.46875 -1.265625 Z M 7.578125 -1.265625 "/></g></g></g><g fill="#ffffff" fill-opacity="1"><g transform="translate(307.267778, 178.476617)"><g><path d="M 1.84375 -15.5 L 3.328125 -15.5 L 3.328125 0 L 1.84375 0 Z M 1.84375 -15.5 "/></g></g></g><g fill="#ffffff" fill-opacity="1"><g transform="translate(312.430822, 178.476617)"><g><path d="M 0.453125 -10.5625 L 0.453125 -11.359375 L 1.84375 -11.359375 L 5.34375 -1.953125 L 5.4375 -1.953125 L 8.84375 -11.359375 L 10.21875 -11.359375 L 10.21875 -10.5625 L 6.203125 0 L 4.46875 0 Z M 0.453125 -10.5625 "/></g></g></g><g fill="#ffffff" fill-opacity="1"><g transform="translate(323.101117, 178.476617)"><g><path d="M 4.359375 0 C 3.484375 0 2.765625 -0.273438 2.203125 -0.828125 C 1.648438 -1.390625 1.375 -2.109375 1.375 -2.984375 L 1.375 -8.609375 C 1.375 -9.484375 1.648438 -10.195312 2.203125 -10.75 C 2.765625 -11.3125 3.484375 -11.59375 4.359375 -11.59375 L 7.453125 -11.59375 C 8.328125 -11.59375 9.039062 -11.3125 9.59375 -10.75 C 10.15625 -10.195312 10.4375 -9.484375 10.4375 -8.609375 L 10.4375 -4.703125 L 2.875 -4.703125 L 2.875 -3.09375 C 2.875 -2.019531 3.40625 -1.484375 4.46875 -1.484375 L 9.984375 -1.484375 L 9.984375 0 Z M 8.953125 -6.203125 L 8.953125 -8.5 C 8.953125 -9.5625 8.414062 -10.09375 7.34375 -10.09375 L 4.46875 -10.09375 C 3.40625 -10.09375 2.875 -9.5625 2.875 -8.5 L 2.875 -6.203125 Z M 8.953125 -6.203125 "/></g></g></g><g fill="#ffffff" fill-opacity="1"><g transform="translate(334.918759, 178.476617)"><g><path d="M 4.359375 0.234375 C 3.484375 0.234375 2.765625 -0.046875 2.203125 -0.609375 C 1.648438 -1.171875 1.375 -1.882812 1.375 -2.75 L 1.375 -8.375 C 1.375 -9.25 1.648438 -9.960938 2.203125 -10.515625 C 2.765625 -11.078125 3.484375 -11.359375 4.359375 -11.359375 L 8.953125 -11.359375 L 8.953125 -15.5 L 10.4375 -15.5 L 10.4375 0 L 9.40625 0 L 9.0625 -1.140625 L 8.953125 -1.140625 C 8.796875 -0.878906 8.597656 -0.648438 8.359375 -0.453125 C 8.140625 -0.285156 7.863281 -0.128906 7.53125 0.015625 C 7.207031 0.160156 6.800781 0.234375 6.3125 0.234375 Z M 6.546875 -1.265625 C 7.296875 -1.265625 7.882812 -1.476562 8.3125 -1.90625 C 8.738281 -2.332031 8.953125 -2.921875 8.953125 -3.671875 L 8.953125 -9.875 L 4.46875 -9.875 C 3.40625 -9.875 2.875 -9.335938 2.875 -8.265625 L 2.875 -2.875 C 2.875 -1.800781 3.40625 -1.265625 4.46875 -1.265625 Z M 6.546875 -1.265625 "/></g></g></g><g fill="#ffffff" fill-opacity="1"><g transform="translate(347.195343, 178.476617)"><g><path d="M 4.359375 0.234375 C 3.484375 0.234375 2.765625 -0.046875 2.203125 -0.609375 C 1.648438 -1.171875 1.375 -1.882812 1.375 -2.75 L 1.375 -8.609375 C 1.375 -9.484375 1.648438 -10.195312 2.203125 -10.75 C 2.765625 -11.3125 3.484375 -11.59375 4.359375 -11.59375 L 7.6875 -11.59375 C 8.5625 -11.59375 9.273438 -11.3125 9.828125 -10.75 C 10.390625 -10.195312 10.671875 -9.484375 10.671875 -8.609375 L 10.671875 -2.75 C 10.671875 -1.882812 10.390625 -1.171875 9.828125 -0.609375 C 9.273438 -0.046875 8.5625 0.234375 7.6875 0.234375 Z M 7.578125 -1.265625 C 8.648438 -1.265625 9.1875 -1.800781 9.1875 -2.875 L 9.1875 -8.5 C 9.1875 -9.5625 8.648438 -10.09375 7.578125 -10.09375 L 4.46875 -10.09375 C 3.40625 -10.09375 2.875 -9.5625 2.875 -8.5 L 2.875 -2.875 C 2.875 -1.800781 3.40625 -1.265625 4.46875 -1.265625 Z M 7.578125 -1.265625 "/></g></g></g><g fill="#ffffff" fill-opacity="1"><g transform="translate(359.242455, 178.476617)"><g><path d="M 1.71875 -11.359375 L 2.75 -11.359375 L 3.09375 -10.21875 L 3.21875 -10.21875 C 3.363281 -10.476562 3.5625 -10.707031 3.8125 -10.90625 C 4.019531 -11.070312 4.289062 -11.226562 4.625 -11.375 C 4.957031 -11.519531 5.367188 -11.59375 5.859375 -11.59375 L 7.6875 -11.59375 L 7.6875 -10.09375 L 5.625 -10.09375 C 4.9375 -10.09375 4.363281 -9.863281 3.90625 -9.40625 C 3.445312 -8.945312 3.21875 -8.375 3.21875 -7.6875 L 3.21875 0 L 1.71875 0 Z M 1.71875 -11.359375 "/></g></g></g><g fill="#ffffff" fill-opacity="1"><g transform="translate(367.273861, 178.476617)"><g/></g></g><g fill="#ffffff" fill-opacity="1"><g transform="translate(372.781112, 178.476617)"><g><path d="M -0.921875 2.40625 L 0.234375 2.40625 C 1.304688 2.40625 1.84375 1.867188 1.84375 0.796875 L 1.84375 -11.359375 L 3.328125 -11.359375 L 3.328125 0.921875 C 3.328125 1.785156 3.046875 2.5 2.484375 3.0625 C 1.929688 3.625 1.21875 3.90625 0.34375 3.90625 L -0.921875 3.90625 Z M 1.84375 -15.71875 L 3.328125 -15.71875 L 3.328125 -13.421875 L 1.84375 -13.421875 Z M 1.84375 -15.71875 "/></g></g></g><g fill="#ffffff" fill-opacity="1"><g transform="translate(377.82943, 178.476617)"><g><path d="M 4.015625 0.234375 C 3.140625 0.234375 2.421875 -0.046875 1.859375 -0.609375 C 1.304688 -1.171875 1.03125 -1.882812 1.03125 -2.75 L 1.03125 -3.8125 C 1.03125 -4.238281 1.101562 -4.628906 1.25 -4.984375 C 1.40625 -5.347656 1.613281 -5.660156 1.875 -5.921875 C 2.132812 -6.179688 2.445312 -6.382812 2.8125 -6.53125 C 3.1875 -6.6875 3.585938 -6.765625 4.015625 -6.765625 L 8.140625 -6.765625 L 8.140625 -8.265625 C 8.140625 -8.765625 8.003906 -9.15625 7.734375 -9.4375 C 7.460938 -9.726562 7.066406 -9.875 6.546875 -9.875 L 1.953125 -9.875 L 1.953125 -11.359375 L 6.65625 -11.359375 C 7.53125 -11.359375 8.242188 -11.078125 8.796875 -10.515625 C 9.359375 -9.960938 9.640625 -9.25 9.640625 -8.375 L 9.640625 0 L 8.609375 0 L 8.265625 -1.140625 L 8.140625 -1.140625 C 7.992188 -0.878906 7.796875 -0.648438 7.546875 -0.453125 C 7.335938 -0.285156 7.066406 -0.128906 6.734375 0.015625 C 6.410156 0.160156 6.003906 0.234375 5.515625 0.234375 Z M 5.734375 -1.265625 C 6.484375 -1.265625 7.070312 -1.476562 7.5 -1.90625 C 7.925781 -2.332031 8.140625 -2.921875 8.140625 -3.671875 L 8.140625 -5.28125 L 4.125 -5.28125 C 3.0625 -5.28125 2.53125 -4.742188 2.53125 -3.671875 L 2.53125 -2.875 C 2.53125 -1.800781 3.0625 -1.265625 4.125 -1.265625 Z M 5.734375 -1.265625 "/></g></g></g><g fill="#ffffff" fill-opacity="1"><g transform="translate(389.188148, 178.476617)"><g><path d="M 0.453125 -10.5625 L 0.453125 -11.359375 L 1.84375 -11.359375 L 5.34375 -1.953125 L 5.4375 -1.953125 L 8.84375 -11.359375 L 10.21875 -11.359375 L 10.21875 -10.5625 L 6.203125 0 L 4.46875 0 Z M 0.453125 -10.5625 "/></g></g></g><g fill="#ffffff" fill-opacity="1"><g transform="translate(399.858452, 178.476617)"><g><path d="M 4.015625 0.234375 C 3.140625 0.234375 2.421875 -0.046875 1.859375 -0.609375 C 1.304688 -1.171875 1.03125 -1.882812 1.03125 -2.75 L 1.03125 -3.8125 C 1.03125 -4.238281 1.101562 -4.628906 1.25 -4.984375 C 1.40625 -5.347656 1.613281 -5.660156 1.875 -5.921875 C 2.132812 -6.179688 2.445312 -6.382812 2.8125 -6.53125 C 3.1875 -6.6875 3.585938 -6.765625 4.015625 -6.765625 L 8.140625 -6.765625 L 8.140625 -8.265625 C 8.140625 -8.765625 8.003906 -9.15625 7.734375 -9.4375 C 7.460938 -9.726562 7.066406 -9.875 6.546875 -9.875 L 1.953125 -9.875 L 1.953125 -11.359375 L 6.65625 -11.359375 C 7.53125 -11.359375 8.242188 -11.078125 8.796875 -10.515625 C 9.359375 -9.960938 9.640625 -9.25 9.640625 -8.375 L 9.640625 0 L 8.609375 0 L 8.265625 -1.140625 L 8.140625 -1.140625 C 7.992188 -0.878906 7.796875 -0.648438 7.546875 -0.453125 C 7.335938 -0.285156 7.066406 -0.128906 6.734375 0.015625 C 6.410156 0.160156 6.003906 0.234375 5.515625 0.234375 Z M 5.734375 -1.265625 C 6.484375 -1.265625 7.070312 -1.476562 7.5 -1.90625 C 7.925781 -2.332031 8.140625 -2.921875 8.140625 -3.671875 L 8.140625 -5.28125 L 4.125 -5.28125 C 3.0625 -5.28125 2.53125 -4.742188 2.53125 -3.671875 L 2.53125 -2.875 C 2.53125 -1.800781 3.0625 -1.265625 4.125 -1.265625 Z M 5.734375 -1.265625 "/></g></g></g></svg>