<svg xmlns="http://www.w3.org/2000/svg" xmlns:xlink="http://www.w3.org/1999/xlink" width="851" zoomAndPan="magnify" viewBox="0 0 638.25 112.499997" height="150" preserveAspectRatio="xMidYMid meet" version="1.0"><defs><g/><clipPath id="07489072e2"><path d="M 1.039062 0 L 636.464844 0 L 636.464844 112.003906 L 1.039062 112.003906 Z M 1.039062 0 " clip-rule="nonzero"/></clipPath><clipPath id="dc58185639"><path d="M 309.25 13.070312 L 327.917969 13.070312 L 327.917969 51 L 309.25 51 Z M 309.25 13.070312 " clip-rule="nonzero"/></clipPath><clipPath id="3f1c4b4b89"><path d="M 313.734375 23 L 323.441406 23 L 323.441406 41.300781 L 313.734375 41.300781 Z M 313.734375 23 " clip-rule="nonzero"/></clipPath></defs><g clip-path="url(#07489072e2)"><path fill="#ffffff" d="M 1.039062 0 L 636.464844 0 L 636.464844 112.003906 L 1.039062 112.003906 Z M 1.039062 0 " fill-opacity="1" fill-rule="nonzero"/><path fill="#000000" d="M 1.039062 0 L 636.464844 0 L 636.464844 112.003906 L 1.039062 112.003906 Z M 1.039062 0 " fill-opacity="1" fill-rule="nonzero"/></g><g clip-path="url(#dc58185639)"><path fill="#ff5c00" d="M 325.84375 13.070312 C 325.84375 16.210938 325.84375 19.351562 325.84375 22.535156 C 326.632812 22.535156 327.40625 22.535156 328.210938 22.535156 C 328.210938 23.46875 328.210938 24.367188 328.210938 25.261719 C 328.210938 28.371094 328.285156 31.476562 328.1875 34.582031 C 328.09375 37.570312 326.550781 39.671875 323.828125 40.890625 C 323.566406 41.007812 323.441406 41.117188 323.464844 41.421875 C 323.496094 41.800781 323.472656 42.1875 323.472656 42.566406 C 323.46875 43.355469 322.992188 43.835938 322.214844 43.84375 C 321.859375 43.84375 321.503906 43.84375 321.121094 43.84375 C 321.121094 46.210938 321.121094 48.550781 321.121094 50.914062 C 319.535156 50.914062 317.980469 50.914062 316.394531 50.914062 C 316.394531 48.578125 316.394531 46.242188 316.394531 43.84375 C 316.003906 43.84375 315.640625 43.84375 315.277344 43.84375 C 314.480469 43.835938 314 43.34375 314.007812 42.539062 C 314.007812 42.132812 313.996094 41.726562 314.011719 41.320312 C 314.019531 41.113281 313.949219 41.019531 313.757812 40.941406 C 311.191406 39.839844 309.679688 37.914062 309.320312 35.140625 C 309.21875 34.351562 309.273438 33.539062 309.273438 32.738281 C 309.269531 29.445312 309.273438 26.152344 309.273438 22.863281 C 309.273438 22.765625 309.273438 22.671875 309.273438 22.550781 C 310.070312 22.550781 310.832031 22.550781 311.640625 22.550781 C 311.640625 19.371094 311.640625 16.21875 311.640625 13.066406 C 316.375 13.070312 321.109375 13.070312 325.84375 13.070312 Z M 316.367188 15.457031 C 315.558594 15.457031 314.792969 15.457031 314.027344 15.457031 C 314.027344 17.039062 314.027344 18.59375 314.027344 20.148438 C 314.820312 20.148438 315.589844 20.148438 316.367188 20.148438 C 316.367188 18.578125 316.367188 17.03125 316.367188 15.457031 Z M 321.128906 15.441406 C 321.128906 17.03125 321.128906 18.589844 321.128906 20.148438 C 321.917969 20.148438 322.6875 20.148438 323.445312 20.148438 C 323.445312 18.5625 323.445312 17.007812 323.445312 15.441406 C 322.664062 15.441406 321.914062 15.441406 321.128906 15.441406 Z M 321.128906 15.441406 " fill-opacity="1" fill-rule="nonzero"/></g><g clip-path="url(#3f1c4b4b89)"><path fill="#000000" d="M 323.382812 28.976562 L 321.417969 28.976562 C 321.058594 28.976562 320.765625 29.261719 320.765625 29.613281 L 320.765625 30.886719 C 320.765625 31.238281 321.058594 31.523438 321.417969 31.523438 L 322.074219 31.523438 L 322.074219 33.464844 L 319.457031 34.074219 L 319.457031 28.339844 L 321.117188 28.339844 C 321.257812 28.339844 321.390625 28.191406 321.464844 28.074219 C 321.539062 27.957031 321.546875 27.769531 321.484375 27.648438 L 319.414062 23.550781 C 319.273438 23.277344 318.816406 23.269531 318.679688 23.539062 L 316.609375 27.613281 C 316.546875 27.734375 316.554688 27.960938 316.628906 28.074219 C 316.703125 28.191406 316.835938 28.339844 316.976562 28.339844 L 318.800781 28.339844 L 318.800781 35.664062 L 316.183594 35.058594 L 316.183594 33.3125 C 317.117188 33.128906 317.820312 32.324219 317.820312 31.363281 C 317.820312 30.265625 316.902344 29.375 315.773438 29.375 C 314.644531 29.375 313.8125 30.265625 313.8125 31.363281 C 313.8125 32.324219 314.21875 33.128906 315.527344 33.3125 L 315.527344 35.367188 C 315.527344 35.546875 315.574219 35.707031 315.753906 35.753906 L 318.710938 36.472656 C 318.726562 36.476562 318.800781 36.476562 318.800781 36.480469 L 318.800781 37.335938 C 317.492188 37.542969 317.136719 38.328125 317.136719 39.269531 C 317.136719 40.367188 318.011719 41.257812 319.140625 41.257812 C 320.269531 41.257812 321.164062 40.367188 321.164062 39.269531 C 321.164062 38.292969 320.414062 37.480469 319.457031 37.316406 L 319.457031 34.890625 C 319.472656 34.886719 319.492188 34.886719 319.507812 34.882812 L 322.417969 34.164062 C 322.601562 34.117188 322.726562 33.960938 322.726562 33.777344 L 322.726562 31.523438 L 323.382812 31.523438 C 323.746094 31.523438 324.035156 31.238281 324.035156 30.886719 L 324.035156 29.613281 C 324.035156 29.261719 323.742188 28.976562 323.382812 28.976562 Z M 323.382812 28.976562 " fill-opacity="1" fill-rule="nonzero"/></g><g fill="#ff4500" fill-opacity="1"><g transform="translate(252.425171, 76.75581)"><g><path d="M 11.765625 -3.953125 C 11.765625 -3.390625 11.664062 -2.878906 11.46875 -2.421875 C 11.269531 -1.960938 10.988281 -1.546875 10.625 -1.171875 C 10.269531 -0.816406 9.835938 -0.535156 9.328125 -0.328125 C 8.804688 -0.109375 8.289062 0 7.78125 0 L 2.375 0 C 2.039062 0 1.753906 -0.113281 1.515625 -0.34375 C 1.285156 -0.582031 1.171875 -0.867188 1.171875 -1.203125 L 1.171875 -18.703125 C 1.171875 -19.035156 1.285156 -19.316406 1.515625 -19.546875 C 1.753906 -19.785156 2.039062 -19.90625 2.375 -19.90625 L 7.78125 -19.90625 C 8.351562 -19.90625 8.867188 -19.804688 9.328125 -19.609375 C 9.585938 -19.515625 9.816406 -19.390625 10.015625 -19.234375 C 10.222656 -19.085938 10.425781 -18.929688 10.625 -18.765625 C 10.800781 -18.566406 10.960938 -18.363281 11.109375 -18.15625 C 11.253906 -17.957031 11.375 -17.726562 11.46875 -17.46875 C 11.664062 -17 11.765625 -16.484375 11.765625 -15.921875 Z M 5.15625 -3.953125 L 7.78125 -3.953125 L 7.78125 -15.921875 L 5.15625 -15.921875 Z M 5.15625 -3.953125 "/></g></g></g><g fill="#ff4500" fill-opacity="1"><g transform="translate(265.361629, 76.75581)"><g><path d="M 11.765625 -15.953125 L 11.765625 0 L 7.78125 0 L 7.78125 -7.953125 L 5.15625 -7.953125 L 5.15625 0 L 1.171875 0 L 1.171875 -15.953125 C 1.171875 -16.472656 1.28125 -16.976562 1.5 -17.46875 C 1.707031 -17.976562 1.988281 -18.398438 2.34375 -18.734375 C 2.675781 -19.078125 3.09375 -19.359375 3.59375 -19.578125 C 4.125 -19.796875 4.644531 -19.90625 5.15625 -19.90625 L 7.78125 -19.90625 C 8.289062 -19.90625 8.804688 -19.796875 9.328125 -19.578125 C 9.835938 -19.378906 10.269531 -19.097656 10.625 -18.734375 C 10.988281 -18.359375 11.269531 -17.9375 11.46875 -17.46875 C 11.664062 -17.019531 11.765625 -16.515625 11.765625 -15.953125 Z M 5.15625 -11.9375 L 7.78125 -11.9375 L 7.78125 -15.953125 L 5.15625 -15.953125 Z M 5.15625 -11.9375 "/></g></g></g><g fill="#ff4500" fill-opacity="1"><g transform="translate(278.298088, 76.75581)"><g><path d="M 11.765625 -15.953125 L 11.765625 0 L 7.78125 0 L 7.78125 -15.953125 L 5.15625 -15.953125 L 5.15625 0 L 1.171875 0 L 1.171875 -15.953125 C 1.171875 -16.472656 1.28125 -16.976562 1.5 -17.46875 C 1.707031 -17.976562 1.988281 -18.398438 2.34375 -18.734375 C 2.675781 -19.078125 3.09375 -19.359375 3.59375 -19.578125 C 4.125 -19.796875 4.644531 -19.90625 5.15625 -19.90625 L 7.78125 -19.90625 C 8.289062 -19.90625 8.804688 -19.796875 9.328125 -19.578125 C 9.835938 -19.378906 10.269531 -19.097656 10.625 -18.734375 C 10.988281 -18.359375 11.269531 -17.9375 11.46875 -17.46875 C 11.664062 -17.019531 11.765625 -16.515625 11.765625 -15.953125 Z M 11.765625 -15.953125 "/></g></g></g><g fill="#ff4500" fill-opacity="1"><g transform="translate(291.234547, 76.75581)"><g/></g></g><g fill="#ff4500" fill-opacity="1"><g transform="translate(298.258872, 76.75581)"><g><path d="M 7.640625 -19.90625 L 11.625 -19.90625 L 11.625 -15.921875 C 11.625 -15.585938 11.617188 -15.1875 11.609375 -14.71875 C 11.597656 -14.25 11.582031 -13.722656 11.5625 -13.140625 C 11.539062 -12.578125 11.492188 -11.972656 11.421875 -11.328125 C 11.359375 -10.679688 11.273438 -10 11.171875 -9.28125 C 10.984375 -7.894531 10.664062 -6.378906 10.21875 -4.734375 C 9.84375 -3.347656 9.296875 -1.957031 8.578125 -0.5625 C 8.398438 -0.226562 8.113281 -0.0390625 7.71875 0 L 4.921875 0 C 4.523438 -0.0390625 4.238281 -0.226562 4.0625 -0.5625 C 3.34375 -1.957031 2.796875 -3.347656 2.421875 -4.734375 C 1.972656 -6.378906 1.65625 -7.894531 1.46875 -9.28125 C 1.363281 -10 1.273438 -10.679688 1.203125 -11.328125 C 1.140625 -11.972656 1.097656 -12.578125 1.078125 -13.140625 C 1.054688 -13.722656 1.039062 -14.25 1.03125 -14.71875 C 1.03125 -15.1875 1.03125 -15.585938 1.03125 -15.921875 L 1.03125 -19.90625 L 5 -19.90625 L 5 -14.015625 C 5 -13.648438 5.015625 -13.25 5.046875 -12.8125 C 5.078125 -12.382812 5.113281 -11.925781 5.15625 -11.4375 C 5.1875 -10.957031 5.238281 -10.460938 5.3125 -9.953125 C 5.394531 -9.441406 5.476562 -8.914062 5.5625 -8.375 C 5.65625 -7.820312 5.765625 -7.265625 5.890625 -6.703125 C 6.023438 -6.140625 6.171875 -5.570312 6.328125 -5 C 6.484375 -5.570312 6.628906 -6.140625 6.765625 -6.703125 C 6.898438 -7.265625 7.003906 -7.820312 7.078125 -8.375 C 7.179688 -8.914062 7.265625 -9.441406 7.328125 -9.953125 C 7.398438 -10.460938 7.453125 -10.957031 7.484375 -11.4375 C 7.523438 -11.925781 7.5625 -12.382812 7.59375 -12.8125 C 7.625 -13.25 7.640625 -13.648438 7.640625 -14.015625 Z M 7.640625 -19.90625 "/></g></g></g><g fill="#ff4500" fill-opacity="1"><g transform="translate(310.902656, 76.75581)"><g><path d="M 11.765625 -15.953125 L 11.765625 0 L 7.78125 0 L 7.78125 -7.953125 L 5.15625 -7.953125 L 5.15625 0 L 1.171875 0 L 1.171875 -15.953125 C 1.171875 -16.472656 1.28125 -16.976562 1.5 -17.46875 C 1.707031 -17.976562 1.988281 -18.398438 2.34375 -18.734375 C 2.675781 -19.078125 3.09375 -19.359375 3.59375 -19.578125 C 4.125 -19.796875 4.644531 -19.90625 5.15625 -19.90625 L 7.78125 -19.90625 C 8.289062 -19.90625 8.804688 -19.796875 9.328125 -19.578125 C 9.835938 -19.378906 10.269531 -19.097656 10.625 -18.734375 C 10.988281 -18.359375 11.269531 -17.9375 11.46875 -17.46875 C 11.664062 -17.019531 11.765625 -16.515625 11.765625 -15.953125 Z M 5.15625 -11.9375 L 7.78125 -11.9375 L 7.78125 -15.953125 L 5.15625 -15.953125 Z M 5.15625 -11.9375 "/></g></g></g><g fill="#ff4500" fill-opacity="1"><g transform="translate(323.839114, 76.75581)"><g><path d="M 11.203125 -3.984375 C 11.203125 -3.410156 11.109375 -2.890625 10.921875 -2.421875 C 10.722656 -1.960938 10.4375 -1.546875 10.0625 -1.171875 C 9.71875 -0.816406 9.289062 -0.535156 8.78125 -0.328125 C 8.25 -0.109375 7.734375 0 7.234375 0 L 4.5625 0 C 4.050781 0 3.535156 -0.109375 3.015625 -0.328125 C 2.503906 -0.535156 2.082031 -0.816406 1.75 -1.171875 C 1.40625 -1.503906 1.125 -1.921875 0.90625 -2.421875 C 0.6875 -2.953125 0.578125 -3.472656 0.578125 -3.984375 L 0.578125 -6.671875 L 4.5625 -6.671875 L 4.5625 -3.984375 L 7.234375 -3.984375 L 7.234375 -5.5 L 1.609375 -11.734375 C 1.253906 -12.140625 1 -12.5625 0.84375 -13 C 0.664062 -13.445312 0.578125 -13.914062 0.578125 -14.40625 L 0.578125 -15.921875 C 0.578125 -16.429688 0.6875 -16.945312 0.90625 -17.46875 C 1.125 -17.976562 1.40625 -18.410156 1.75 -18.765625 C 2.125 -19.128906 2.546875 -19.410156 3.015625 -19.609375 C 3.484375 -19.804688 4 -19.90625 4.5625 -19.90625 L 7.234375 -19.90625 C 7.796875 -19.90625 8.3125 -19.804688 8.78125 -19.609375 C 9.03125 -19.515625 9.257812 -19.390625 9.46875 -19.234375 C 9.675781 -19.085938 9.875 -18.929688 10.0625 -18.765625 C 10.238281 -18.566406 10.398438 -18.363281 10.546875 -18.15625 C 10.691406 -17.957031 10.816406 -17.726562 10.921875 -17.46875 C 11.109375 -17 11.203125 -16.484375 11.203125 -15.921875 L 11.203125 -13.28125 L 7.234375 -13.28125 L 7.234375 -15.921875 L 4.5625 -15.921875 L 4.5625 -14.40625 L 10.1875 -8.140625 C 10.519531 -7.722656 10.773438 -7.3125 10.953125 -6.90625 C 11.117188 -6.476562 11.203125 -6.007812 11.203125 -5.5 Z M 11.203125 -3.984375 "/></g></g></g><g fill="#ff4500" fill-opacity="1"><g transform="translate(335.634124, 76.75581)"><g><path d="M 11.828125 -3.953125 C 11.828125 -3.390625 11.726562 -2.878906 11.53125 -2.421875 C 11.332031 -1.960938 11.050781 -1.546875 10.6875 -1.171875 C 10.332031 -0.816406 9.898438 -0.535156 9.390625 -0.328125 C 9.097656 -0.203125 8.796875 -0.113281 8.484375 -0.0625 L 8.484375 2.640625 L 4.5 2.640625 L 4.5 -0.0625 C 4.1875 -0.113281 3.882812 -0.203125 3.59375 -0.328125 C 3.09375 -0.535156 2.675781 -0.816406 2.34375 -1.171875 C 1.988281 -1.503906 1.707031 -1.921875 1.5 -2.421875 C 1.28125 -2.910156 1.171875 -3.421875 1.171875 -3.953125 L 1.171875 -15.921875 C 1.171875 -16.429688 1.28125 -16.945312 1.5 -17.46875 C 1.707031 -17.976562 1.988281 -18.410156 2.34375 -18.765625 C 2.707031 -19.128906 3.125 -19.410156 3.59375 -19.609375 C 4.039062 -19.804688 4.550781 -19.90625 5.125 -19.90625 L 7.84375 -19.90625 C 8.40625 -19.90625 8.921875 -19.804688 9.390625 -19.609375 C 9.648438 -19.515625 9.878906 -19.390625 10.078125 -19.234375 C 10.285156 -19.085938 10.488281 -18.929688 10.6875 -18.765625 C 10.863281 -18.566406 11.023438 -18.363281 11.171875 -18.15625 C 11.316406 -17.957031 11.4375 -17.726562 11.53125 -17.46875 C 11.726562 -17 11.828125 -16.484375 11.828125 -15.921875 Z M 5.15625 -3.953125 L 7.84375 -3.953125 L 7.84375 -15.921875 L 5.15625 -15.921875 Z M 5.15625 -3.953125 "/></g></g></g><g fill="#ff4500" fill-opacity="1"><g transform="translate(348.629121, 76.75581)"><g><path d="M 11.765625 -3.953125 C 11.765625 -3.390625 11.664062 -2.878906 11.46875 -2.421875 C 11.269531 -1.960938 10.988281 -1.546875 10.625 -1.171875 C 10.269531 -0.816406 9.835938 -0.535156 9.328125 -0.328125 C 8.804688 -0.109375 8.289062 0 7.78125 0 L 5.15625 0 C 4.644531 0 4.125 -0.109375 3.59375 -0.328125 C 3.09375 -0.535156 2.675781 -0.816406 2.34375 -1.171875 C 1.988281 -1.503906 1.707031 -1.921875 1.5 -2.421875 C 1.28125 -2.910156 1.171875 -3.421875 1.171875 -3.953125 L 1.171875 -19.90625 L 5.15625 -19.90625 L 5.15625 -3.953125 L 7.78125 -3.953125 L 7.78125 -19.90625 L 11.765625 -19.90625 Z M 11.765625 -3.953125 "/></g></g></g><g fill="#ff4500" fill-opacity="1"><g transform="translate(361.56558, 76.75581)"><g><path d="M 10.53125 -3.984375 L 10.53125 0 L 2.375 0 C 2.039062 0 1.753906 -0.113281 1.515625 -0.34375 C 1.285156 -0.582031 1.171875 -0.867188 1.171875 -1.203125 L 1.171875 -18.703125 C 1.171875 -19.035156 1.285156 -19.316406 1.515625 -19.546875 C 1.753906 -19.785156 2.039062 -19.90625 2.375 -19.90625 L 10.53125 -19.90625 L 10.53125 -15.921875 L 5.15625 -15.921875 L 5.15625 -11.9375 L 10.53125 -11.9375 L 10.53125 -7.953125 L 5.15625 -7.953125 L 5.15625 -3.984375 Z M 10.53125 -3.984375 "/></g></g></g><g fill="#ff4500" fill-opacity="1"><g transform="translate(373.272781, 76.75581)"><g><path d="M 11.203125 -3.984375 C 11.203125 -3.410156 11.109375 -2.890625 10.921875 -2.421875 C 10.722656 -1.960938 10.4375 -1.546875 10.0625 -1.171875 C 9.71875 -0.816406 9.289062 -0.535156 8.78125 -0.328125 C 8.25 -0.109375 7.734375 0 7.234375 0 L 4.5625 0 C 4.050781 0 3.535156 -0.109375 3.015625 -0.328125 C 2.503906 -0.535156 2.082031 -0.816406 1.75 -1.171875 C 1.40625 -1.503906 1.125 -1.921875 0.90625 -2.421875 C 0.6875 -2.953125 0.578125 -3.472656 0.578125 -3.984375 L 0.578125 -6.671875 L 4.5625 -6.671875 L 4.5625 -3.984375 L 7.234375 -3.984375 L 7.234375 -5.5 L 1.609375 -11.734375 C 1.253906 -12.140625 1 -12.5625 0.84375 -13 C 0.664062 -13.445312 0.578125 -13.914062 0.578125 -14.40625 L 0.578125 -15.921875 C 0.578125 -16.429688 0.6875 -16.945312 0.90625 -17.46875 C 1.125 -17.976562 1.40625 -18.410156 1.75 -18.765625 C 2.125 -19.128906 2.546875 -19.410156 3.015625 -19.609375 C 3.484375 -19.804688 4 -19.90625 4.5625 -19.90625 L 7.234375 -19.90625 C 7.796875 -19.90625 8.3125 -19.804688 8.78125 -19.609375 C 9.03125 -19.515625 9.257812 -19.390625 9.46875 -19.234375 C 9.675781 -19.085938 9.875 -18.929688 10.0625 -18.765625 C 10.238281 -18.566406 10.398438 -18.363281 10.546875 -18.15625 C 10.691406 -17.957031 10.816406 -17.726562 10.921875 -17.46875 C 11.109375 -17 11.203125 -16.484375 11.203125 -15.921875 L 11.203125 -13.28125 L 7.234375 -13.28125 L 7.234375 -15.921875 L 4.5625 -15.921875 L 4.5625 -14.40625 L 10.1875 -8.140625 C 10.519531 -7.722656 10.773438 -7.3125 10.953125 -6.90625 C 11.117188 -6.476562 11.203125 -6.007812 11.203125 -5.5 Z M 11.203125 -3.984375 "/></g></g></g><g fill="#ffffff" fill-opacity="1"><g transform="translate(259.782268, 94.719892)"><g><path d="M 2.78125 0.140625 C 2.21875 0.140625 1.757812 -0.0351562 1.40625 -0.390625 C 1.050781 -0.742188 0.875 -1.195312 0.875 -1.75 L 0.875 -5.34375 C 0.875 -5.894531 1.050781 -6.347656 1.40625 -6.703125 C 1.757812 -7.054688 2.21875 -7.234375 2.78125 -7.234375 L 5.703125 -7.234375 L 5.703125 -9.875 L 6.65625 -9.875 L 6.65625 0 L 6 0 L 5.78125 -0.734375 L 5.703125 -0.734375 C 5.609375 -0.566406 5.484375 -0.421875 5.328125 -0.296875 C 5.191406 -0.179688 5.015625 -0.0820312 4.796875 0 C 4.585938 0.09375 4.328125 0.140625 4.015625 0.140625 Z M 4.171875 -0.796875 C 4.648438 -0.796875 5.023438 -0.929688 5.296875 -1.203125 C 5.566406 -1.484375 5.703125 -1.863281 5.703125 -2.34375 L 5.703125 -6.28125 L 2.859375 -6.28125 C 2.171875 -6.28125 1.828125 -5.941406 1.828125 -5.265625 L 1.828125 -1.828125 C 1.828125 -1.140625 2.171875 -0.796875 2.859375 -0.796875 Z M 4.171875 -0.796875 "/></g></g></g><g fill="#ffffff" fill-opacity="1"><g transform="translate(267.60987, 94.719892)"><g><path d="M 2.78125 0 C 2.21875 0 1.757812 -0.175781 1.40625 -0.53125 C 1.050781 -0.882812 0.875 -1.34375 0.875 -1.90625 L 0.875 -5.484375 C 0.875 -6.035156 1.050781 -6.488281 1.40625 -6.84375 C 1.757812 -7.207031 2.21875 -7.390625 2.78125 -7.390625 L 4.75 -7.390625 C 5.3125 -7.390625 5.769531 -7.207031 6.125 -6.84375 C 6.476562 -6.488281 6.65625 -6.035156 6.65625 -5.484375 L 6.65625 -3 L 1.828125 -3 L 1.828125 -1.96875 C 1.828125 -1.289062 2.171875 -0.953125 2.859375 -0.953125 L 6.359375 -0.953125 L 6.359375 0 Z M 5.703125 -3.953125 L 5.703125 -5.40625 C 5.703125 -6.09375 5.363281 -6.4375 4.6875 -6.4375 L 2.859375 -6.4375 C 2.171875 -6.4375 1.828125 -6.09375 1.828125 -5.40625 L 1.828125 -3.953125 Z M 5.703125 -3.953125 "/></g></g></g><g fill="#ffffff" fill-opacity="1"><g transform="translate(275.144848, 94.719892)"><g><path d="M 0.578125 -0.953125 L 3.875 -0.953125 C 4.5625 -0.953125 4.90625 -1.289062 4.90625 -1.96875 C 4.90625 -2.257812 4.828125 -2.484375 4.671875 -2.640625 C 4.515625 -2.796875 4.25 -2.914062 3.875 -3 L 2.1875 -3.359375 C 1.675781 -3.472656 1.28125 -3.679688 1 -3.984375 C 0.71875 -4.296875 0.578125 -4.675781 0.578125 -5.125 L 0.578125 -5.34375 C 0.578125 -5.925781 0.75 -6.382812 1.09375 -6.71875 C 1.4375 -7.0625 1.898438 -7.234375 2.484375 -7.234375 L 5.625 -7.234375 L 5.625 -6.578125 L 5.34375 -6.28125 L 2.5625 -6.28125 C 1.875 -6.28125 1.53125 -5.941406 1.53125 -5.265625 C 1.53125 -4.972656 1.597656 -4.75 1.734375 -4.59375 C 1.867188 -4.4375 2.117188 -4.316406 2.484375 -4.234375 L 4.171875 -3.875 C 4.679688 -3.769531 5.085938 -3.5625 5.390625 -3.25 C 5.691406 -2.9375 5.84375 -2.5625 5.84375 -2.125 L 5.84375 -1.90625 C 5.84375 -1.320312 5.671875 -0.859375 5.328125 -0.515625 C 4.992188 -0.171875 4.535156 0 3.953125 0 L 0.578125 0 Z M 0.578125 -0.953125 "/></g></g></g><g fill="#ffffff" fill-opacity="1"><g transform="translate(281.5825, 94.719892)"><g><path d="M 2.78125 0 C 2.21875 0 1.757812 -0.175781 1.40625 -0.53125 C 1.050781 -0.882812 0.875 -1.34375 0.875 -1.90625 L 0.875 -5.484375 C 0.875 -6.035156 1.050781 -6.488281 1.40625 -6.84375 C 1.757812 -7.207031 2.21875 -7.390625 2.78125 -7.390625 L 4.75 -7.390625 C 5.3125 -7.390625 5.769531 -7.207031 6.125 -6.84375 C 6.476562 -6.488281 6.65625 -6.035156 6.65625 -5.484375 L 6.65625 -3 L 1.828125 -3 L 1.828125 -1.96875 C 1.828125 -1.289062 2.171875 -0.953125 2.859375 -0.953125 L 6.359375 -0.953125 L 6.359375 0 Z M 5.703125 -3.953125 L 5.703125 -5.40625 C 5.703125 -6.09375 5.363281 -6.4375 4.6875 -6.4375 L 2.859375 -6.4375 C 2.171875 -6.4375 1.828125 -6.09375 1.828125 -5.40625 L 1.828125 -3.953125 Z M 5.703125 -3.953125 "/></g></g></g><g fill="#ffffff" fill-opacity="1"><g transform="translate(289.117478, 94.719892)"><g><path d="M 1.09375 -7.234375 L 1.75 -7.234375 L 1.96875 -6.515625 L 2.046875 -6.515625 C 2.140625 -6.671875 2.265625 -6.816406 2.421875 -6.953125 C 2.554688 -7.054688 2.726562 -7.15625 2.9375 -7.25 C 3.15625 -7.34375 3.421875 -7.390625 3.734375 -7.390625 L 4.828125 -7.390625 C 5.378906 -7.390625 5.832031 -7.207031 6.1875 -6.84375 C 6.550781 -6.488281 6.734375 -6.035156 6.734375 -5.484375 L 6.734375 0 L 5.78125 0 L 5.78125 -5.40625 C 5.78125 -6.09375 5.4375 -6.4375 4.75 -6.4375 L 3.578125 -6.4375 C 3.097656 -6.4375 2.722656 -6.296875 2.453125 -6.015625 C 2.179688 -5.742188 2.046875 -5.375 2.046875 -4.90625 L 2.046875 0 L 1.09375 0 Z M 1.09375 -7.234375 "/></g></g></g><g fill="#ffffff" fill-opacity="1"><g transform="translate(296.94508, 94.719892)"><g><path d="M 0.296875 -6.734375 L 0.296875 -7.234375 L 1.171875 -7.234375 L 3.40625 -1.25 L 3.46875 -1.25 L 5.625 -7.234375 L 6.515625 -7.234375 L 6.515625 -6.734375 L 3.953125 0 L 2.859375 0 Z M 0.296875 -6.734375 "/></g></g></g><g fill="#ffffff" fill-opacity="1"><g transform="translate(303.748505, 94.719892)"><g><path d="M 2.78125 0.140625 C 2.21875 0.140625 1.757812 -0.0351562 1.40625 -0.390625 C 1.050781 -0.742188 0.875 -1.195312 0.875 -1.75 L 0.875 -5.484375 C 0.875 -6.035156 1.050781 -6.488281 1.40625 -6.84375 C 1.757812 -7.207031 2.21875 -7.390625 2.78125 -7.390625 L 4.90625 -7.390625 C 5.457031 -7.390625 5.910156 -7.207031 6.265625 -6.84375 C 6.617188 -6.488281 6.796875 -6.035156 6.796875 -5.484375 L 6.796875 -1.75 C 6.796875 -1.195312 6.617188 -0.742188 6.265625 -0.390625 C 5.910156 -0.0351562 5.457031 0.140625 4.90625 0.140625 Z M 4.828125 -0.796875 C 5.503906 -0.796875 5.84375 -1.140625 5.84375 -1.828125 L 5.84375 -5.40625 C 5.84375 -6.09375 5.503906 -6.4375 4.828125 -6.4375 L 2.859375 -6.4375 C 2.171875 -6.4375 1.828125 -6.09375 1.828125 -5.40625 L 1.828125 -1.828125 C 1.828125 -1.140625 2.171875 -0.796875 2.859375 -0.796875 Z M 4.828125 -0.796875 "/></g></g></g><g fill="#ffffff" fill-opacity="1"><g transform="translate(311.429795, 94.719892)"><g><path d="M 1.171875 -9.875 L 2.125 -9.875 L 2.125 0 L 1.171875 0 Z M 1.171875 -9.875 "/></g></g></g><g fill="#ffffff" fill-opacity="1"><g transform="translate(314.721774, 94.719892)"><g><path d="M 0.296875 -6.734375 L 0.296875 -7.234375 L 1.171875 -7.234375 L 3.40625 -1.25 L 3.46875 -1.25 L 5.625 -7.234375 L 6.515625 -7.234375 L 6.515625 -6.734375 L 3.953125 0 L 2.859375 0 Z M 0.296875 -6.734375 "/></g></g></g><g fill="#ffffff" fill-opacity="1"><g transform="translate(321.5252, 94.719892)"><g><path d="M 2.78125 0 C 2.21875 0 1.757812 -0.175781 1.40625 -0.53125 C 1.050781 -0.882812 0.875 -1.34375 0.875 -1.90625 L 0.875 -5.484375 C 0.875 -6.035156 1.050781 -6.488281 1.40625 -6.84375 C 1.757812 -7.207031 2.21875 -7.390625 2.78125 -7.390625 L 4.75 -7.390625 C 5.3125 -7.390625 5.769531 -7.207031 6.125 -6.84375 C 6.476562 -6.488281 6.65625 -6.035156 6.65625 -5.484375 L 6.65625 -3 L 1.828125 -3 L 1.828125 -1.96875 C 1.828125 -1.289062 2.171875 -0.953125 2.859375 -0.953125 L 6.359375 -0.953125 L 6.359375 0 Z M 5.703125 -3.953125 L 5.703125 -5.40625 C 5.703125 -6.09375 5.363281 -6.4375 4.6875 -6.4375 L 2.859375 -6.4375 C 2.171875 -6.4375 1.828125 -6.09375 1.828125 -5.40625 L 1.828125 -3.953125 Z M 5.703125 -3.953125 "/></g></g></g><g fill="#ffffff" fill-opacity="1"><g transform="translate(329.060178, 94.719892)"><g><path d="M 2.78125 0.140625 C 2.21875 0.140625 1.757812 -0.0351562 1.40625 -0.390625 C 1.050781 -0.742188 0.875 -1.195312 0.875 -1.75 L 0.875 -5.34375 C 0.875 -5.894531 1.050781 -6.347656 1.40625 -6.703125 C 1.757812 -7.054688 2.21875 -7.234375 2.78125 -7.234375 L 5.703125 -7.234375 L 5.703125 -9.875 L 6.65625 -9.875 L 6.65625 0 L 6 0 L 5.78125 -0.734375 L 5.703125 -0.734375 C 5.609375 -0.566406 5.484375 -0.421875 5.328125 -0.296875 C 5.191406 -0.179688 5.015625 -0.0820312 4.796875 0 C 4.585938 0.09375 4.328125 0.140625 4.015625 0.140625 Z M 4.171875 -0.796875 C 4.648438 -0.796875 5.023438 -0.929688 5.296875 -1.203125 C 5.566406 -1.484375 5.703125 -1.863281 5.703125 -2.34375 L 5.703125 -6.28125 L 2.859375 -6.28125 C 2.171875 -6.28125 1.828125 -5.941406 1.828125 -5.265625 L 1.828125 -1.828125 C 1.828125 -1.140625 2.171875 -0.796875 2.859375 -0.796875 Z M 4.171875 -0.796875 "/></g></g></g><g fill="#ffffff" fill-opacity="1"><g transform="translate(336.88778, 94.719892)"><g><path d="M 2.78125 0.140625 C 2.21875 0.140625 1.757812 -0.0351562 1.40625 -0.390625 C 1.050781 -0.742188 0.875 -1.195312 0.875 -1.75 L 0.875 -5.484375 C 0.875 -6.035156 1.050781 -6.488281 1.40625 -6.84375 C 1.757812 -7.207031 2.21875 -7.390625 2.78125 -7.390625 L 4.90625 -7.390625 C 5.457031 -7.390625 5.910156 -7.207031 6.265625 -6.84375 C 6.617188 -6.488281 6.796875 -6.035156 6.796875 -5.484375 L 6.796875 -1.75 C 6.796875 -1.195312 6.617188 -0.742188 6.265625 -0.390625 C 5.910156 -0.0351562 5.457031 0.140625 4.90625 0.140625 Z M 4.828125 -0.796875 C 5.503906 -0.796875 5.84375 -1.140625 5.84375 -1.828125 L 5.84375 -5.40625 C 5.84375 -6.09375 5.503906 -6.4375 4.828125 -6.4375 L 2.859375 -6.4375 C 2.171875 -6.4375 1.828125 -6.09375 1.828125 -5.40625 L 1.828125 -1.828125 C 1.828125 -1.140625 2.171875 -0.796875 2.859375 -0.796875 Z M 4.828125 -0.796875 "/></g></g></g><g fill="#ffffff" fill-opacity="1"><g transform="translate(344.56907, 94.719892)"><g><path d="M 1.09375 -7.234375 L 1.75 -7.234375 L 1.96875 -6.515625 L 2.046875 -6.515625 C 2.140625 -6.671875 2.265625 -6.816406 2.421875 -6.953125 C 2.554688 -7.054688 2.726562 -7.15625 2.9375 -7.25 C 3.15625 -7.34375 3.421875 -7.390625 3.734375 -7.390625 L 4.90625 -7.390625 L 4.90625 -6.4375 L 3.578125 -6.4375 C 3.140625 -6.4375 2.773438 -6.289062 2.484375 -6 C 2.191406 -5.707031 2.046875 -5.34375 2.046875 -4.90625 L 2.046875 0 L 1.09375 0 Z M 1.09375 -7.234375 "/></g></g></g><g fill="#ffffff" fill-opacity="1"><g transform="translate(349.689928, 94.719892)"><g/></g></g><g fill="#ffffff" fill-opacity="1"><g transform="translate(353.201374, 94.719892)"><g><path d="M -0.578125 1.53125 L 0.140625 1.53125 C 0.828125 1.53125 1.171875 1.191406 1.171875 0.515625 L 1.171875 -7.234375 L 2.125 -7.234375 L 2.125 0.578125 C 2.125 1.140625 1.941406 1.597656 1.578125 1.953125 C 1.222656 2.304688 0.769531 2.484375 0.21875 2.484375 L -0.578125 2.484375 Z M 1.171875 -10.015625 L 2.125 -10.015625 L 2.125 -8.5625 L 1.171875 -8.5625 Z M 1.171875 -10.015625 "/></g></g></g><g fill="#ffffff" fill-opacity="1"><g transform="translate(356.420203, 94.719892)"><g><path d="M 2.5625 0.140625 C 2 0.140625 1.539062 -0.0351562 1.1875 -0.390625 C 0.832031 -0.742188 0.65625 -1.195312 0.65625 -1.75 L 0.65625 -2.421875 C 0.65625 -2.703125 0.703125 -2.957031 0.796875 -3.1875 C 0.898438 -3.414062 1.035156 -3.609375 1.203125 -3.765625 C 1.367188 -3.929688 1.566406 -4.0625 1.796875 -4.15625 C 2.035156 -4.257812 2.289062 -4.3125 2.5625 -4.3125 L 5.1875 -4.3125 L 5.1875 -5.265625 C 5.1875 -5.585938 5.097656 -5.835938 4.921875 -6.015625 C 4.753906 -6.191406 4.503906 -6.28125 4.171875 -6.28125 L 1.25 -6.28125 L 1.25 -7.234375 L 4.234375 -7.234375 C 4.796875 -7.234375 5.253906 -7.054688 5.609375 -6.703125 C 5.960938 -6.347656 6.140625 -5.894531 6.140625 -5.34375 L 6.140625 0 L 5.484375 0 L 5.265625 -0.734375 L 5.1875 -0.734375 C 5.09375 -0.566406 4.96875 -0.421875 4.8125 -0.296875 C 4.675781 -0.179688 4.503906 -0.0820312 4.296875 0 C 4.085938 0.09375 3.828125 0.140625 3.515625 0.140625 Z M 3.65625 -0.796875 C 4.132812 -0.796875 4.507812 -0.929688 4.78125 -1.203125 C 5.050781 -1.484375 5.1875 -1.863281 5.1875 -2.34375 L 5.1875 -3.359375 L 2.625 -3.359375 C 1.945312 -3.359375 1.609375 -3.019531 1.609375 -2.34375 L 1.609375 -1.828125 C 1.609375 -1.140625 1.945312 -0.796875 2.625 -0.796875 Z M 3.65625 -0.796875 "/></g></g></g><g fill="#ffffff" fill-opacity="1"><g transform="translate(363.66257, 94.719892)"><g><path d="M 0.296875 -6.734375 L 0.296875 -7.234375 L 1.171875 -7.234375 L 3.40625 -1.25 L 3.46875 -1.25 L 5.625 -7.234375 L 6.515625 -7.234375 L 6.515625 -6.734375 L 3.953125 0 L 2.859375 0 Z M 0.296875 -6.734375 "/></g></g></g><g fill="#ffffff" fill-opacity="1"><g transform="translate(370.466001, 94.719892)"><g><path d="M 2.5625 0.140625 C 2 0.140625 1.539062 -0.0351562 1.1875 -0.390625 C 0.832031 -0.742188 0.65625 -1.195312 0.65625 -1.75 L 0.65625 -2.421875 C 0.65625 -2.703125 0.703125 -2.957031 0.796875 -3.1875 C 0.898438 -3.414062 1.035156 -3.609375 1.203125 -3.765625 C 1.367188 -3.929688 1.566406 -4.0625 1.796875 -4.15625 C 2.035156 -4.257812 2.289062 -4.3125 2.5625 -4.3125 L 5.1875 -4.3125 L 5.1875 -5.265625 C 5.1875 -5.585938 5.097656 -5.835938 4.921875 -6.015625 C 4.753906 -6.191406 4.503906 -6.28125 4.171875 -6.28125 L 1.25 -6.28125 L 1.25 -7.234375 L 4.234375 -7.234375 C 4.796875 -7.234375 5.253906 -7.054688 5.609375 -6.703125 C 5.960938 -6.347656 6.140625 -5.894531 6.140625 -5.34375 L 6.140625 0 L 5.484375 0 L 5.265625 -0.734375 L 5.1875 -0.734375 C 5.09375 -0.566406 4.96875 -0.421875 4.8125 -0.296875 C 4.675781 -0.179688 4.503906 -0.0820312 4.296875 0 C 4.085938 0.09375 3.828125 0.140625 3.515625 0.140625 Z M 3.65625 -0.796875 C 4.132812 -0.796875 4.507812 -0.929688 4.78125 -1.203125 C 5.050781 -1.484375 5.1875 -1.863281 5.1875 -2.34375 L 5.1875 -3.359375 L 2.625 -3.359375 C 1.945312 -3.359375 1.609375 -3.019531 1.609375 -2.34375 L 1.609375 -1.828125 C 1.609375 -1.140625 1.945312 -0.796875 2.625 -0.796875 Z M 3.65625 -0.796875 "/></g></g></g></svg>